HIERARCHY
ROOT Hips
{
  OFFSET 0.382225 96.6805 0.598322
  CHANNELS 6 Xposition Yposition Zposition Zrotation Xrotation Yrotation
  JOINT Spine
  {
    OFFSET 10.8089 -0.851416 0
    CHANNELS 3 Zrotation Xrotation Yrotation
    JOINT Spine1
    {
      OFFSET 18.8753 3.80116 0
      CHANNELS 3 Zrotation Xrotation Yrotation
      JOINT Spine2
      {
        OFFSET 13.4073 0.420477 0
        CHANNELS 3 Zrotation Xrotation Yrotation
        JOINT LeftShoulder
        {
          OFFSET 11.8837 -2.73209 -3.78198
          CHANNELS 3 Zrotation Xrotation Yrotation
          JOINT LeftArm
          {
            OFFSET 15.7849 0 -2.35849e-005
            CHANNELS 3 Zrotation Xrotation Yrotation
            JOINT LeftForeArm
            {
              OFFSET 30.3399 0 0
              CHANNELS 3 Zrotation Xrotation Yrotation
              JOINT LeftHand
              {
                OFFSET 26.9751 0 2.45913e-005
                CHANNELS 3 Zrotation Xrotation Yrotation
                End Site
                {
                  OFFSET 8 0 0
                }
              }
            }
          }
        }
        JOINT RightShoulder
        {
          OFFSET 11.8838 -2.7321 3.782
          CHANNELS 3 Zrotation Xrotation Yrotation
          JOINT RightArm
          {
            OFFSET -15.7848 0 -1.07056e-005
            CHANNELS 3 Zrotation Xrotation Yrotation
            JOINT RightForeArm
            {
              OFFSET -30.34 1.02096e-005 -2.53607e-005
              CHANNELS 3 Zrotation Xrotation Yrotation
              JOINT RightHand
              {
                OFFSET -26.9752 2.07668e-005 0
                CHANNELS 3 Zrotation Xrotation Yrotation
                End Site
                {
                  OFFSET -8 0 0
                }
              }
            }
          }
        }
        JOINT Neck
        {
          OFFSET 16.5588 -0.355318 0
          CHANNELS 3 Zrotation Xrotation Yrotation
          JOINT Head
          {
            OFFSET 9.28361 0.364157 0
            CHANNELS 3 Zrotation Xrotation Yrotation
            End Site
            {
              OFFSET 0 0 0
            }
          }
        }
      }
    }
  }
  JOINT LeftUpLeg
  {
    OFFSET -1.44883 -0.531424 -9.00581
    CHANNELS 3 Zrotation Xrotation Yrotation
    JOINT LeftLeg
    {
      OFFSET -42.572 0.0788889 -0.011964
      CHANNELS 3 Zrotation Xrotation Yrotation
      JOINT LeftFoot
      {
        OFFSET -40.1967 0 0
        CHANNELS 3 Zrotation Xrotation Yrotation
				JOINT LeftToe
        {
          OFFSET -10.4538 -16.5779 0.0801563
          CHANNELS 3 Zrotation Xrotation Yrotation
          End Site
          {
            OFFSET -1.0 -1.0 0.0
          }
        }
      }
    }
  }
  JOINT RightUpLeg
  {
    OFFSET -1.44865 -0.531427 9.0058
    CHANNELS 3 Zrotation Xrotation Yrotation
    JOINT RightLeg
    {
      OFFSET 42.5723 -3.24776e-005 0
      CHANNELS 3 Zrotation Xrotation Yrotation
      JOINT RightFoot
      {
        OFFSET 40.1968 0 -1.14003e-005
        CHANNELS 3 Zrotation Xrotation Yrotation
				JOINT RightToe
        {
          OFFSET 10.4538 16.5778 -0.0801573
          CHANNELS 3 Zrotation Xrotation Yrotation
          End Site
          {
            OFFSET -1.0 -1.0 0.0
          }
        }
      }
    }
  }
}
MOTION
Frames:	17
Frame Time:	0.0333333
160.452 101.675 -23.9514 -93.5882 -66.2429 -157.675 -33.8737 -26.4701 6.19545 20.2999 -0.336494 -0.583471 2.7794 1.93418e-006 1.65929e-005 -6.45823 -5.41794 64.2481 -45.7477 -24.3156 17.6497 -69.1166 4.78655 -18.6024 -90.0264 -47.6191 -82.03 -178.649 1.14107 87.71 -24.91 -1.77037 37.8571 -73.6649 -9.06246 -5.70848 -1.57823 -82.4065 14.2511 -23.508 4.63459e-006 -5.90926e-006 -8.72046 -23.1521 -20.1349 38.803 30.3305 -41.0205 -0.984083 -6.20533 2.55967 -26.3416 -17.7437 17.0463 -90 0 0 -95.899 25.7957 -14.0832 -118.752 6.10455 -4.99547 17.3794 -7.57733 23.6113 -90 0 0
159.175 102.671 -23.2887 -91.5695 -66.7079 -150.392 -36.8262 -22.8452 1.12228 21.1023 -0.384353 -0.655819 2.7794 1.93418e-006 1.65929e-005 -5.92293 -3.18078 61.6368 -34.6261 -24.4531 16.921 -64.962 2.70624 -17.8049 -100.284 -44.1587 -96.4203 -179.536 5.45475 88.4018 -21.1498 1.29791 27.721 -51.1009 -9.08748 -3.65744 -13.1881 -76.9209 4.82574 -23.508 4.63459e-006 -5.90926e-006 -9.85157 -21.723 -26.9202 43.7178 24.8163 -49.3358 -0.0948079 -6.17627 2.64645 -24.6071 -12.1096 13.4005 -90 0 0 -82.4924 20.6423 -17.2678 -126.189 6.87584 -4.34829 18.6514 -10.7284 27.3922 -90 0 0
158.234 103.047 -21.3752 -90.1099 -68.532 -141.984 -40.6441 -16.416 -6.90429 21.7389 -0.423045 -0.712716 2.7794 1.93418e-006 1.65929e-005 -3.93921 1.41799 61.98 -21.4454 -13.0203 20.5331 -70.6686 5.60529 -18.8719 -98.939 -44.9205 -95.8116 178.864 10.3596 90.7982 -16.8801 7.99044 18.8371 -32.8365 -8.53276 -2.09019 -20.0415 -77.8729 -3.3432 -23.508 4.63459e-006 -5.90926e-006 -9.7868 -23.6683 -34.7853 49.7809 18.887 -58.4815 -0.175928 -6.26751 2.5935 -30.1424 -12.9402 8.51166 -90 0 0 -79.8603 6.22038 -23.3117 -127.81 7.38814 -4.22049 15.5131 -14.8189 29.3468 -90 0 0
157.922 102.503 -18.5489 -85.774 -71.4311 -132.027 -42.3784 -10.1882 -14.1446 21.7738 -0.425186 -0.715834 2.7794 1.93418e-006 1.65929e-005 -1.57743 7.21625 61.9777 -11.3612 6.06902 26.6602 -79.9584 10.5198 -19.9866 -94.0937 -47.207 -94.5093 176.088 16.4392 94.1429 -9.5481 11.4285 12.6211 -22.6675 -8.01899 -1.31821 -18.0915 -81.4446 -3.58608 -23.508 4.63459e-006 -5.90926e-006 -12.3555 -30.4179 -43.9875 53.9073 13.7816 -64.0829 -0.0858422 -6.31724 2.57568 -35.2947 -12.8679 6.04446 -90 0 0 -92.1888 -9.24566 -33.7258 -116.195 6.43348 -5.25537 7.38628 -14.2172 27.7547 -90 0 0
158.114 101.164 -15.1556 -71.6139 -73.8982 -116.663 -40.0348 -8.3696 -17.3585 21.6793 -0.419402 -0.707419 2.7794 1.93418e-006 1.65929e-005 0.616719 12.415 61.0323 -6.24217 29.1814 35.7402 -90.1419 15.9756 -20.2729 -92.1092 -50.2925 -97.594 170.234 23.7493 101.11 -2.55342 6.61175 9.12085 -16.6284 -7.65207 -0.90717 -16.8992 -84.5095 -3.98533 -23.508 4.63459e-006 -5.90926e-006 -22.0689 -36.204 -58.0511 56.9419 13.4321 -63.6213 -0.125213 -6.32227 2.56397 -28.2203 -18.2869 8.84432 -90 0 0 -114.653 -12.9928 -49.2702 -86.4385 2.20448 -6.17633 -9.39308 -14.5139 26.1514 -90 0 0
157.677 100.231 -11.4508 -50.9513 -75.7274 -97.2873 -36.3324 -9.52531 -15.4646 21.638 -0.416856 -0.703735 2.7794 1.93418e-006 1.65929e-005 3.19916 17.8487 59.327 -8.94474 48.188 49.1121 -96.6972 19.403 -19.93 -85.7293 -53.8347 -90.6857 163.823 26.9114 109.681 10.1063 -5.71253 13.5587 -12.6851 -7.3899 -0.660701 -150.739 -84.1421 -140.386 -23.508 4.63459e-006 -5.90926e-006 -35.2406 -35.2457 -73.019 55.5695 10.2049 -59.3974 -5.21656 -6.68911 1.80791 -18.2395 -17.1841 11.8299 -90 0 0 -145.678 -2.65875 -60.6755 -39.5112 -4.27677 -2.55243 -7.6175 -9.71255 22.7158 -90 0 0
155.614 100.4 -8.50598 -28.0603 -74.4714 -76.6303 -28.6022 -8.92126 -9.07153 20.734 -0.362261 -0.622701 2.7794 1.93418e-006 1.65929e-005 3.54575 18.0971 58.5193 -20.7735 56.9478 68.2019 -98.1388 20.1393 -19.7999 -84.1733 -57.3102 -89.9161 162.918 27.9305 110.086 30.8784 -6.66273 29.7884 -6.9097 -6.97656 -0.333907 -173.882 -60.525 -163.795 -23.508 4.63459e-006 -5.90926e-006 -39.5155 -33.7906 -77.1108 56.575 8.35082 -55.0497 -6.9803 -6.66174 1.56198 -17.5883 -18.024 10.358 -90 0 0 173.655 -5.49108 -60.9539 -11.508 -6.06683 1.23145 4.018 1.98286 11.8678 -90 0 0
154.203 100.843 -7.93922 -27.965 -74.9512 -74.102 -28.9223 -0.804072 -6.73913 21.8665 -0.430881 -0.724073 2.7794 1.93418e-006 1.65929e-005 1.59792 19.5273 66.6805 -30.3593 55.2697 76.1277 -99.3344 20.7435 -19.6773 -81.784 -57.4884 -86.98 164.447 27.5708 107.958 27.3084 6.3839 44.1903 0.00696529 -2.27899 0.11101 -161.736 -40.422 -165.254 -23.508 4.63459e-006 -5.90926e-006 -26.5049 -39.7484 -65.2474 52.5401 3.88759 -55.8708 -6.76144 -6.44847 1.62274 -17.5932 -11.7769 6.99047 -90 0 0 -171.565 5.52407 -54.6995 -8.59802 -6.22479 1.66483 7.87945 -19.0052 39.1022 -90 0 0
154.283 100.935 -8.96323 -50.9484 -77.6511 -98.1534 -32.564 1.23681 -1.76278 19.68 -0.300228 -0.527156 2.7794 1.93418e-006 1.65929e-005 0.419286 19.9663 71.192 -46.5695 41.0597 92.1964 -96.8455 19.4791 -19.9175 -85.1152 -57.656 -90.3346 168.077 20.9214 108.88 12.8854 8.88315 52.626 -1.25643 -6.54184 -0.0558121 -159.523 -36.9769 -162.889 -23.508 4.63459e-006 -5.90926e-006 -17.8614 -42.048 -49.1432 50.9918 10.3771 -58.3262 -4.70545 -6.32314 1.92438 -18.8649 -7.20381 4.74056 -90 0 0 -155.343 1.36899 -49.5693 -31.2003 -5.02329 -1.4139 5.9623 -3.44362 19.2627 -90 0 0
153.866 100.452 -9.59173 -45.9297 -81.2447 -96.7505 -36.6574 -3.627 1.14688 18.0348 -0.206933 -0.375805 2.7794 1.93418e-006 1.65929e-005 -1.74684 12.8367 76.2967 -54.7543 26.9334 93.494 -96.383 19.2415 -19.9558 -79.6769 -57.0906 -82.6058 169.918 19.1598 107.167 5.13255 1.27556 55.5102 -13.2886 -7.43106 -0.697179 -168.185 -52.7017 -163.277 -23.508 4.63459e-006 -5.90926e-006 -21.1249 -45.7438 -45.2803 48.5351 13.9849 -55.2306 -2.73926 -6.19513 2.2375 -20.5063 -8.51077 4.33019 -90 0 0 -146.93 -4.06298 -44.3649 -60.0986 -1.819 -4.9079 11.1268 -8.30603 24.303 -90 0 0
152.964 99.0627 -11.1965 -35.2243 -81.1557 -88.6265 -38.6879 -8.1248 1.07744 18.5105 -0.233452 -0.419835 2.7794 1.93418e-006 1.65929e-005 -1.73921 12.6585 76.0845 -64.7881 14.6884 83.8611 -97.2225 19.6721 -19.8849 -73.6323 -57.1332 -73.7137 171.208 18.5145 104.918 -8.08855 -4.10699 50.2132 -31.5917 -8.47725 -1.99093 -154.669 -72.625 -143.079 -23.508 4.63459e-006 -5.90926e-006 -22.8536 -50.5873 -44.8332 49.7164 15.0976 -52.5894 -1.41573 -6.05779 2.47815 -22.6236 -10.0011 4.13603 -90 0 0 -133.465 -4.61169 -36.1662 -82.0547 1.36407 -6.11237 14.668 -17.336 31.3743 -90 0 0
152.06 97.0633 -13.1381 -40.976 -79.0977 -98.1301 -38.5572 -11.8754 2.45826 19.4431 -0.286527 -0.505524 2.7794 1.93418e-006 1.65929e-005 -1.19471 11.4351 70.4622 -60.8759 8.17142 81.1423 -101.687 21.9174 -19.3972 -72.7088 -57.7631 -72.3401 174.131 14.6399 102.334 -17.3883 -8.34965 40.0444 -48.3363 -9.0308 -3.3994 -154.958 -79.6267 -140.255 -23.508 4.63459e-006 -5.90926e-006 -18.3269 -53.554 -40.9548 51.914 17.4991 -50.7279 -1.32908 -6.01859 2.51838 -24.0724 -9.47396 4.16741 -90 0 0 -118.304 -1.01856 -26.9676 -92.8507 3.06681 -6.17448 14.4576 -13.6048 28.5568 -90 0 0
151.311 94.7926 -14.1561 -43.5153 -79.818 -106.979 -39.8132 -13.6536 5.49619 18.7392 -0.246348 -0.440935 2.7794 1.93418e-006 1.65929e-005 -0.550101 13.5057 69.4009 -54.7212 9.56297 75.6075 -105.408 23.723 -18.8512 -85.2384 -57.327 -87.2609 177.869 10.4796 94.8389 -18.9242 -15.0313 36.8741 -64.1954 -9.17117 -4.84907 -167.179 -80.6544 -152.392 -23.508 4.63459e-006 -5.90926e-006 -7.49904 -58.1812 -34.0078 54.5883 18.206 -47.4756 -12.9353 -5.96521 1.06873 -17.8006 -9.09318 4.48289 -90 0 0 -114.546 2.62626 -20.0827 -92.0351 2.91573 -6.15162 12.8011 -14.3148 26.4443 -90 0 0
150.657 92.1161 -14.23 -43.0378 -81.8005 -115.577 -40.1637 -10.8746 11.1567 17.5547 -0.180536 -0.33114 2.7794 1.93418e-006 1.65929e-005 -1.18901 14.7268 74.3871 -51.1525 12.1381 66.3041 -103.533 22.8214 -19.1419 -86.3592 -59.0511 -88.6545 -179.223 7.99738 84.4225 -14.5861 -17.527 41.0473 -81.8872 -8.85638 -6.43079 -159.43 -79.2184 -145.621 -23.508 4.63459e-006 -5.90926e-006 5.74095 -64.1343 -19.8125 54.841 21.4647 -42.083 -23.4586 -5.64547 -0.100873 -12.4972 -8.55464 5.02846 -90 0 0 -118.534 2.33542 -16.8066 -84.3294 1.77733 -6.09421 5.61397 -12.4912 19.9525 -90 0 0
149.584 89.3239 -13.5203 -36.5611 -83.5392 -117.619 -39.373 -6.29892 16.9867 16.5554 -0.126794 -0.23747 2.7794 1.93418e-006 1.65929e-005 -1.59185 15.8023 77.3195 -57.6507 9.40427 64.4459 -100.013 21.0852 -19.6016 -87.8036 -57.0633 -94.3547 -178.302 7.23521 80.5056 -16.7377 -14.165 44.4267 -95.8791 -8.27847 -7.56741 -169.43 -77.9 -155.316 -23.508 4.63459e-006 -5.90926e-006 11.7353 -65.9844 -8.80732 54.3273 25.253 -37.314 -30.8686 -5.3075 -0.588971 -8.13095 -9.2598 5.91335 -90 0 0 -126.042 0.861232 -15.343 -71.9634 -0.0479027 -5.66206 -9.41964 -6.29414 12.8821 -90 0 0
148.153 86.3308 -12.6516 -28.2431 -85.2693 -115.271 -38.8505 -2.72399 20.4092 15.4452 -0.069014 -0.132356 2.7794 1.93418e-006 1.65929e-005 -1.87585 16.1148 78.9701 -65.585 2.62202 66.1915 -102.773 22.4511 -19.2507 -86.1745 -55.6581 -91.789 -178.532 7.9772 81.2779 -28.0718 -11.1951 52.3494 -99.413 -8.09051 -7.82945 170.596 -82.1 -174.134 -23.508 4.63459e-006 -5.90926e-006 13.6581 -66.2884 -3.53631 54.0496 25.9021 -34.0545 -38.281 -4.88025 -1.28378 -4.06629 -8.91331 7.48335 -90 0 0 -131.601 -1.13965 -13.5174 -66.287 -0.876357 -5.34061 -6.07207 3.49118 12.5257 -90 0 0
146.381 83.2226 -12.5922 -37.0521 -85.4966 -128.386 -38.8083 -1.61011 22.5682 15.8363 -0.0891332 -0.1695 2.7794 1.93418e-006 1.65929e-005 -2.22192 15.786 80.7629 -71.5953 -6.52467 61.9412 -106.271 24.1312 -18.7073 -82.3334 -55.8886 -84.9317 -178.511 4.73948 82.7505 -38.6496 -10.8783 65.84 -90.819 -8.51905 -7.17309 -161.639 -86.5084 -147.747 -23.508 4.63459e-006 -5.90926e-006 21.997 -67.2581 6.07136 54.4618 24.6293 -32.4926 -44.3385 -4.5058 -1.89318 -1.45884 -6.79616 10.2283 -90 0 0 -134.836 -2.4519 -11.5118 -68.4003 -0.354898 -5.49625 16.0581 17.2439 0.22291 -90 0 0
